HIERARCHY
ROOT Hips
{
	OFFSET 0.00000 0.00000 0.00000
	CHANNELS 6 Xposition Yposition Zposition Zrotation Yrotation Xrotation 
	JOINT RightUpLegDummy
	{
		OFFSET 0 0 0
		CHANNELS 3 Zrotation Yrotation Xrotation
		JOINT RightUpLeg
		{
			OFFSET -3.52197 -3.41223 0.04002
			CHANNELS 3 Zrotation Yrotation Xrotation
			JOINT RightLeg
			{
				OFFSET 0.00006 -17.42390 1.60435
				CHANNELS 3 Zrotation Yrotation Xrotation
				JOINT RightFoot
				{
					OFFSET 0.06153 -16.50078 -1.63901
					CHANNELS 3 Zrotation Yrotation Xrotation
					JOINT RightToes
					{
						OFFSET 0.00298 -1.73825 3.34613
						CHANNELS 3 Zrotation Yrotation Xrotation
						End Site
						{
							OFFSET 0.00480 -0.05416 3.85043
						}
					}
				}
			}
		}
	}
	JOINT SpineDummy
	{
		OFFSET 0 0 0
		CHANNELS 3 Zrotation Yrotation Xrotation
		JOINT Spine
		{
			OFFSET 0.00000 4.68130 0.00000
			CHANNELS 3 Zrotation Yrotation Xrotation
			JOINT Spine1
			{
				OFFSET -0.00000 10.10138 0.05002
				CHANNELS 3 Zrotation Yrotation Xrotation
				JOINT HEadDummy
				{
					OFFSET 0 0 0
					CHANNELS 3 Zrotation Yrotation Xrotation
					JOINT Head
					{
						OFFSET -0.00000 3.43865 0.00438
						CHANNELS 3 Zrotation Yrotation Xrotation
						End Site
						{
							OFFSET -0.11417 5.02924 0.98962
						}
					}
				}
				JOINT LeftShoulder1Dummy
				{
					OFFSET 0 0 0
					CHANNELS 3 Zrotation Yrotation Xrotation
					JOINT LeftShoulder1
					{
						OFFSET 3.53937 -0.14262 -0.08662
						CHANNELS 3 Zrotation Yrotation Xrotation
						JOINT LeftArm
						{
							OFFSET 4.04833 -0.00133 0.12681
							CHANNELS 3 Zrotation Yrotation Xrotation
							JOINT LeftForeArm
							{
								OFFSET 10.33880 -0.01036 -0.55515
								CHANNELS 3 Zrotation Yrotation Xrotation
								JOINT LeftHand
								{
									OFFSET 8.69677 0.07543 0.40060
									CHANNELS 3 Zrotation Yrotation Xrotation
									End Site
									{
										OFFSET 5.28377 -0.21905 0.59205
									}
								}
							}
						}
					}
				}
				JOINT RightShoulderDummy
				{
					OFFSET 0 0 0
					CHANNELS 3 Zrotation Yrotation Xrotation
					JOINT RightShoulder
					{
						OFFSET -3.53937 -0.14262 -0.08660
						CHANNELS 3 Zrotation Yrotation Xrotation
						JOINT RightArm
						{
							OFFSET -4.04833 -0.00133 0.12683
							CHANNELS 3 Zrotation Yrotation Xrotation
							JOINT RightForeArm
							{
								OFFSET -10.37987 -0.01039 -0.55511
								CHANNELS 3 Zrotation Yrotation Xrotation
								JOINT RightHand
								{
									OFFSET -8.67398 0.07538 0.40058
									CHANNELS 3 Zrotation Yrotation Xrotation
									End Site
									{
										OFFSET -5.24810 -0.21916 0.59204
									}
								}
							}
						}
					}
				}
			}
		}
	}
	JOINT LeftUpLegDummy
	{
		OFFSET 0 0 0
		CHANNELS 3 Zrotation Yrotation Xrotation
		JOINT LeftUpLeg
		{
			OFFSET 3.52197 -3.41223 0.04002
			CHANNELS 3 Zrotation Yrotation Xrotation
			JOINT LeftLeg
			{
				OFFSET -0.00012 -17.42399 1.60337
				CHANNELS 3 Zrotation Yrotation Xrotation
				JOINT LeftFoot
				{
					OFFSET -0.09972 -16.50070 -1.63802
					CHANNELS 3 Zrotation Yrotation Xrotation
					JOINT LeftToes
					{
						OFFSET -0.01575 -1.73823 3.34611
						CHANNELS 3 Zrotation Yrotation Xrotation
						End Site
						{
							OFFSET 0.03150 -0.01868 3.85031
						}
					}
				}
			}
		}
	}
}
MOTION
Frames: 12
Frame Time: 0.033333
-51.5161 40.0778 -4.9196 -13.0488 82.9779 -14.7332 0.0000 0.0000 0.0000 4.0424 -0.2102 1.0479 -0.6823 -2.4181 4.1940 -2.7619 0.1911 -3.3460 0.0000 -0.0000 0.0000 0.0000 0.0000 0.0000 1.8757 -0.2721 1.4062 1.1608 -0.5931 0.8253 -0.0000 0.0000 -0.0000 1.0525 0.0152 3.0864 -0.0000 0.0000 -0.0000 -33.1332 -2.6921 2.4184 -45.2549 -15.8533 -17.4392 -10.2564 5.0721 50.0774 16.4723 -4.0726 -1.3087 -0.0000 0.0000 -0.0000 36.1484 5.3881 3.7520 39.0458 4.8834 -18.5380 10.0782 -0.4048 22.7359 -9.6230 2.3399 -0.6211 0.0000 0.0000 0.0000 -0.0080 1.1403 0.9880 1.9783 9.4145 6.5137 2.7124 -0.0958 -5.7928 0.0000 0.0000 -0.0000
-51.5161 40.0778 -4.9158 -13.1634 83.0077 -14.8466 0.0000 0.0000 0.0000 4.0639 -0.1929 1.0492 -0.7039 -2.4819 4.1913 -2.7787 0.1922 -3.3486 0.0000 -0.0000 0.0000 0.0000 0.0000 0.0000 1.8649 -0.2721 1.3794 1.1937 -0.6075 0.8860 -0.0000 0.0000 -0.0000 1.4748 -0.1955 2.7998 -0.0000 0.0000 -0.0000 -32.9710 -2.7059 2.4184 -45.3861 -15.8884 -17.3196 -10.3247 5.0747 49.9618 16.4686 -4.0222 -1.3080 -0.0000 0.0000 -0.0000 36.0977 5.3792 3.7436 39.1217 4.9167 -18.6379 10.0157 -0.3478 22.9440 -9.6755 2.2959 -0.6213 0.0000 0.0000 0.0000 0.0174 1.1434 0.9856 1.9616 9.3268 6.5160 2.6826 -0.0939 -5.7708 0.0000 0.0000 -0.0000
-51.5161 40.0778 -4.9068 -13.2107 83.0092 -14.9385 0.0000 0.0000 0.0000 4.0854 -0.1868 1.1088 -0.7092 -2.4957 4.1791 -2.8147 0.1946 -3.3568 0.0000 -0.0000 0.0000 0.0000 0.0000 0.0000 1.8477 -0.2721 1.4050 1.2545 -0.6111 0.9579 -0.0000 0.0000 -0.0000 1.9721 -0.3746 2.4159 -0.0000 0.0000 -0.0000 -32.8696 -2.7136 2.4184 -45.4538 -15.9526 -17.0788 -10.4693 5.0772 49.8217 16.5551 -3.9727 -1.3079 -0.0000 0.0000 -0.0000 35.9573 5.3547 3.7206 39.3229 5.0015 -18.7840 9.8941 -0.2890 23.6203 -10.0327 2.1179 -0.6310 0.0000 0.0000 0.0000 0.0523 1.1673 1.0313 1.9423 9.2621 6.5289 2.6552 -0.0921 -5.7652 0.0000 0.0000 -0.0000
-51.5161 40.0778 -4.8983 -13.3025 83.0402 -15.0549 0.0000 0.0000 0.0000 4.0836 -0.2272 1.1549 -0.6621 -2.4869 4.1517 -2.9073 0.2004 -3.3242 0.0000 -0.0000 0.0000 0.0000 0.0000 0.0000 1.8066 -0.2750 1.4174 1.3624 -0.6340 1.0036 -0.0000 0.0000 -0.0000 2.3746 -0.4354 2.0376 -0.0000 0.0000 -0.0000 -32.9952 -2.7055 2.4229 -45.3396 -16.0149 -16.8754 -10.5786 5.0731 49.9131 16.8773 -3.8772 -1.3210 -0.0000 0.0000 -0.0000 35.8627 5.3386 3.7052 39.4454 5.0733 -18.8445 9.8110 -0.2904 24.2929 -10.5700 1.9155 -0.6491 0.0000 0.0000 0.0000 0.0770 1.1877 1.0417 1.9294 9.2045 6.5691 2.6515 -0.0919 -5.7811 0.0000 0.0000 -0.0000
-51.5161 40.0778 -4.8946 -14.0505 83.2406 -15.6963 0.0000 0.0000 0.0000 4.0990 -0.2745 1.0810 -0.5993 -2.6622 4.0911 -3.0014 0.2063 -3.2542 0.0000 -0.0000 0.0000 0.0000 0.0000 0.0000 1.7879 -0.3493 1.3013 1.4765 -0.7345 1.0131 -0.0000 0.0000 -0.0000 2.7305 -0.5264 1.6441 -0.0000 0.0000 -0.0000 -33.1714 -2.7034 2.4328 -45.1905 -16.0626 -16.8151 -10.5753 5.0629 50.2524 17.5464 -3.6444 -1.3417 -0.0000 0.0000 -0.0000 35.8979 5.3464 3.7117 39.3681 5.0471 -18.8197 9.8077 -0.3076 24.4396 -10.8942 1.8172 -0.6612 0.0000 0.0000 0.0000 0.1177 1.1807 0.8680 1.9220 9.0068 6.6484 2.6700 -0.0931 -5.8047 0.0000 0.0000 -0.0000
-51.5161 40.0778 -4.8921 -15.5230 83.5617 -16.9803 0.0000 0.0000 0.0000 4.1688 -0.2681 0.9435 -0.5805 -3.0345 3.9900 -3.0157 0.2070 -3.2068 0.0000 -0.0000 0.0000 0.0000 0.0000 0.0000 1.8579 -0.4776 1.1330 1.4977 -0.8763 0.9702 -0.0000 0.0000 -0.0000 2.8737 -0.5322 1.2574 -0.0000 0.0000 -0.0000 -33.1875 -2.7177 2.4394 -45.1508 -16.0919 -16.9017 -10.4748 5.0522 50.6460 18.3689 -3.4267 -1.3742 -0.0000 0.0000 -0.0000 35.9798 5.3633 3.7262 39.2281 4.9257 -18.7753 9.8416 -0.2647 24.2102 -10.8091 1.8159 -0.6557 0.0000 0.0000 0.0000 0.1918 1.1617 0.5751 1.9215 8.6907 6.7527 2.6891 -0.0943 -5.8286 0.0000 0.0000 -0.0000
-51.5161 40.0778 -4.8842 -16.7022 83.7713 -18.0627 0.0000 0.0000 0.0000 4.2553 -0.2186 0.9004 -0.6096 -3.3281 3.8925 -3.0151 0.2070 -3.1998 0.0000 -0.0000 0.0000 0.0000 0.0000 0.0000 1.9473 -0.5526 1.0840 1.4685 -0.9517 0.9033 -0.0000 0.0000 -0.0000 2.8164 -0.4190 1.1989 -0.0000 0.0000 -0.0000 -33.1386 -2.7368 2.4438 -45.1363 -16.1055 -17.0945 -10.3329 5.0438 50.9775 18.9359 -3.5252 -1.4336 -0.0000 0.0000 -0.0000 35.9796 5.3669 3.7277 39.2161 4.7942 -18.8017 9.8287 -0.1419 24.1533 -10.4278 1.8619 -0.6357 0.0000 0.0000 0.0000 0.2644 1.1599 0.4116 1.9244 8.4635 6.8240 2.6784 -0.0936 -5.8427 0.0000 0.0000 -0.0000
-51.5139 40.0778 -4.8700 -16.6094 83.7512 -18.0203 0.0000 0.0000 0.0000 4.2926 -0.1840 0.9780 -0.6449 -3.3391 3.8588 -3.0951 0.2121 -3.1976 0.0000 -0.0000 0.0000 0.0000 0.0000 0.0000 1.8996 -0.5051 1.1604 1.5713 -0.9193 0.8824 -0.0000 0.0000 -0.0000 2.7115 -0.2002 1.1285 -0.0000 0.0000 -0.0000 -33.2553 -2.7363 2.4509 -44.9895 -16.1208 -17.3092 -10.2077 5.0368 51.2550 19.1071 -3.9412 -1.5130 -0.0000 0.0000 -0.0000 35.8675 5.3524 3.7115 39.3292 4.7183 -18.9660 9.7340 0.0004 24.3970 -9.9453 1.9520 -0.6124 0.0000 0.0000 0.0000 0.2895 1.1783 0.4800 1.9175 8.4463 6.8147 2.6360 -0.0909 -5.8370 0.0000 0.0000 -0.0000
-51.5074 40.0778 -4.8540 -15.6180 83.6100 -17.1165 0.0000 0.0000 0.0000 4.2677 -0.1833 1.0542 -0.6635 -3.1717 3.9022 -3.1612 0.2164 -3.1999 0.0000 -0.0000 0.0000 0.0000 0.0000 0.0000 1.7262 -0.3826 1.2395 1.7961 -0.8285 0.9088 -0.0000 0.0000 -0.0000 2.5294 0.0475 1.0334 -0.0000 0.0000 -0.0000 -33.4638 -2.7068 2.4524 -44.7881 -16.1551 -17.4337 -10.1429 5.0311 51.4648 19.1448 -4.3227 -1.5769 -0.0000 0.0000 -0.0000 35.7301 5.3316 3.6903 39.4024 4.7058 -19.1469 9.6489 0.0421 24.5297 -9.5166 2.0422 -0.5919 0.0000 0.0000 0.0000 0.2640 1.1983 0.6450 1.8937 8.5651 6.7273 2.5995 -0.0885 -5.8134 0.0000 0.0000 -0.0000
-51.5008 40.0778 -4.8409 -14.6760 83.5091 -16.2207 0.0000 0.0000 0.0000 4.2131 -0.2018 1.0722 -0.6684 -3.0286 3.9745 -3.0881 0.2118 -3.2384 0.0000 -0.0000 0.0000 0.0000 0.0000 0.0000 1.6241 -0.2781 1.3060 1.8750 -0.7304 0.8878 -0.0000 0.0000 -0.0000 2.5333 -0.0364 0.9828 -0.0000 0.0000 -0.0000 -33.4705 -2.6682 2.4376 -44.7602 -16.1965 -17.4671 -10.1124 5.0267 51.6172 19.2589 -4.4439 -1.6060 -0.0000 0.0000 -0.0000 35.6812 5.3194 3.6808 39.3277 4.7320 -19.1021 9.7017 -0.0859 24.2753 -9.2485 2.0912 -0.5782 0.0000 0.0000 0.0000 0.2175 1.2097 0.7808 1.8596 8.6901 6.5973 2.6010 -0.0886 -5.7836 0.0000 0.0000 -0.0000
-51.4971 40.0778 -4.8325 -14.1162 83.5129 -15.6953 0.0000 0.0000 0.0000 4.1444 -0.2476 1.0896 -0.6505 -2.9616 4.0223 -2.9922 0.2058 -3.2951 0.0000 -0.0000 0.0000 0.0000 0.0000 0.0000 1.6616 -0.2355 1.4190 1.7315 -0.6564 0.7838 -0.0000 0.0000 -0.0000 2.7205 -0.3459 1.0194 -0.0000 0.0000 -0.0000 -33.2972 -2.6516 2.4203 -44.8894 -16.2129 -17.5390 -10.0431 5.0222 51.7886 19.3349 -4.4410 -1.6122 -0.0000 0.0000 -0.0000 35.7201 5.3190 3.6842 39.1873 4.7643 -18.8520 9.8520 -0.2676 23.9194 -9.1179 2.1994 -0.5774 0.0000 0.0000 0.0000 0.1672 1.2083 0.8873 1.8261 8.7461 6.4704 2.6275 -0.0903 -5.7538 0.0000 0.0000 -0.0000
-51.4956 40.0778 -4.8294 -13.8366 83.5957 -15.4477 0.0000 0.0000 0.0000 4.0614 -0.3303 1.1180 -0.5952 -2.9206 4.0415 -3.0346 0.2086 -3.3251 0.0000 -0.0000 0.0000 0.0000 0.0000 0.0000 1.6877 -0.2434 1.5177 1.6454 -0.6459 0.6983 -0.0000 0.0000 -0.0000 2.8386 -0.5826 1.1041 -0.0000 0.0000 -0.0000 -33.3022 -2.6593 2.4236 -44.8957 -16.1877 -17.6761 -9.9548 5.0187 51.9345 19.2850 -4.4888 -1.6155 -0.0000 0.0000 -0.0000 35.7044 5.3152 3.6812 39.1420 4.8034 -18.6737 9.9349 -0.3324 23.8611 -9.0140 2.4507 -0.5881 0.0000 0.0000 0.0000 0.1163 1.1860 0.9503 1.8057 8.7164 6.3996 2.6440 -0.0914 -5.7283 0.0000 0.0000 -0.0000
